<?xml version="1.0" encoding="UTF-8"?>
<svg id="Layer_1" data-name="Layer 1" xmlns="http://www.w3.org/2000/svg" viewBox="0 0 2211.1 1640.81">
  <defs>
    <style>
      .cls-1 {
        fill: #f8afaf;
      }

      .cls-2 {
        fill: #fac5c6;
      }

      .cls-3 {
        fill: #022d25;
      }

      .cls-4 {
        fill: #ee8384;
      }

      .cls-5 {
        fill: #c1c1b6;
      }

      .cls-6 {
        fill: #cc7272;
      }

      .cls-7 {
        fill: #d4d3cb;
      }

      .cls-8 {
        fill: #3db654;
      }

      .cls-9 {
        fill: #540d29;
      }

      .cls-10 {
        fill: #35121a;
      }

      .cls-11 {
        fill: #4cb96d;
      }

      .cls-12 {
        opacity: .15;
      }
    </style>
  </defs>
  <path class="cls-12" d="M19.98,920.64l319.57,143.16,9.24,47.1,404.54,198.58,11.08,51.72,441.53,264.26c31.62,18.93,70.71,20.44,103.71,4.02l892.98-452.16c12.52-6.34,10.76-24.74-2.73-28.59l-158.05-45.11L562.56,795.46,.07,875.19l19.91,45.45Z"/>
  <g>
    <path class="cls-11" d="M454.84,307.84c30.8,27.09,94.72,52.05,103.57,24.43,8.85-27.62-39.54-30.52-39.54-30.52,0,0,12.42-.02,8.2-9.85-4.22-9.83-35.06,1.59-35.06,1.59l-37.18,14.34Z"/>
    <path class="cls-11" d="M379.42,317.4c7.79,38.56,40.16,74.82,62.95,58.86,22.79-15.95-12.01-41.64-12.01-41.64,0,0,9.49,7.2,11.98-2.76,2.49-9.96-28.9-13.75-28.9-13.75l-34.02-.72Z"/>
    <path class="cls-6" d="M390.93,125.47c26.24,38.7,6.33,116.01,6.33,116.01,0,0,9.88,45.54,20.82,70.53,5.47,12.49-3.97,14.93-12.79,19.84-8.82,4.91-17.03,12.3-24.82,3.58-15.57-17.44-32.53-53.51-34.19-75.88-1.67-22.36,21.55-138.41,21.55-138.41l23.1,4.33Z"/>
    <path class="cls-9" d="M400.47,49.92c3.62,12.5,15.69,86.25-19.46,87.79-32.88,1.44-38.59-19.23-38.59-19.23l-14.65-26.25s2.73-22.04,11.99-32.94c9.27-10.9,21.71-19.2,42.65-19.17,14.11,.02,18.07,9.81,18.07,9.81Z"/>
    <path class="cls-10" d="M394.97,32.67c-4.58-27.71-49.01-31.47-70.35-5.22s-5.41,55.02-5.41,55.02l75.77-49.8Z"/>
    <path class="cls-7" d="M400.4,52.36c5.53-1.71-1.11-21.14-5.63-23.29-4.52-2.15-29.73-12.13-56.34,13.31-13.82,13.21-20.28,23.69-22.53,31.69-2.9,10.29-.09,10.25,5.46,19.1,4.77,7.6,12.09,9.74,16.24,2.01,4.15-7.73,9.07-25.99,28.53-38.06,20.24-12.55,34.27-4.76,34.27-4.76Z"/>
    <path class="cls-5" d="M303.34,679.87s-2.01,30.06-4.26,37.89c-2.25,7.83-12.05,24.97,9.81,27.68,20.4,11.06,45.85,22.74,88.66,18.22,5.66-11.25-.36-31.63-21.01-33.76-20.65-2.13-23.51-20.41-22.21-27.5,1.3-7.09,2.6-21.02,2.6-21.02l-53.59-1.51Z"/>
    <path class="cls-8" d="M247.23,442.63l41.34,103.3s14.79,99.25,11.51,138.27c20.78,25.77,60.63,3.63,60.63,3.63,0,0,8.61-113.36,1.71-151.33-6.9-37.97-50.55-153.92-50.55-153.92l-64.64,60.04Z"/>
    <path class="cls-7" d="M272.12,587.23s-4.28,24.23-5,30.11-16.65,26.66,10.85,39.52c10.86,26.1,24.2,39.51,49.94,38.43,25.74-1.08-5.44-59.57-5.44-59.57l2.36-46.66-52.7-1.82Z"/>
    <path class="cls-11" d="M273.19,426.51l35.6,5.95s-20.33,26.87-28.57,62.19c-13.4,57.5-12.91,98.14-12.91,98.14l58.64,7.25c25.75-101.96,65.88-132.57,69.06-170.83,3.19-38.26-58.73-81.49-58.73-81.49l-56.3,30.15-6.79,48.64Z"/>
    <path class="cls-2" d="M321.18,93.42c-83.96,17.76-162.66,174.47-160.95,239.31,1.71,64.84,19.71,93.48,76.06,137.97,37.08-35.72,115.08-115.72,115.08-115.72,0,0-20.99-21.36-31.6-25.45,18.4-58.88,62.77-86.06,69.97-138.68,7.2-52.62-25.03-106.64-68.56-97.43Z"/>
    <path class="cls-4" d="M306.51,97.65c-42.6,16.94,3.45,119.99,47.65,153.55,44.2,33.56,101.76,80.53,125.7,61.28,23.94-19.25,29.57-22.48,3.97-37.4-25.59-14.93-84.68-54.9-91.37-69.45-6.69-14.55-21.09-141.12-85.95-107.98"/>
    <path class="cls-10" d="M345.15,17.11c-4.39-32.24-51.71-16.76-60.86,28.31-9.15,45.07-15.08,81.64-52.32,97.47,35.27,15.63,77.54-11.3,76.35-54.52-.39-14.28,3.32-55.9,18.14-55.45,14.82,.45,18.69-15.8,18.69-15.8Z"/>
  </g>
  <g>
    <path class="cls-10" d="M.6,829.3s-.39,34.41-.53,45.88c-.13,11.47,.87,24.1,20.27,33.5s263.92,111.54,291.15,122.65c20.03,8.17,735.99-144.64,804.02-196.94,8.39-6.45,5.77-36.63,5.77-36.63l-549.66,59.87L.6,829.3Z"/>
    <path class="cls-9" d="M138.07,945.31l-47.76-20.66c-6.21-2.68-9.06-9.89-6.38-16.1h0c2.68-6.21,9.89-9.06,16.1-6.38l47.76,20.66c6.21,2.68,9.06,9.89,6.38,16.1h0c-2.68,6.21-9.89,9.06-16.1,6.38Z"/>
    <path class="cls-8" d="M335.02,908.52c-110.11-53.48-39.01-115.46,40.9-128.21-154.95-1.57-151.01,112.47-40.9,128.21Z"/>
    <path class="cls-8" d="M657.31,728.97c122.37,3.25,83.2,89.05,15.68,133.65,141.77-62.54,91.1-164.79-15.68-133.65Z"/>
  </g>
  <g>
    <path class="cls-10" d="M324.75,993.05v48.25c0,13.79,0,33.21,21.93,43.24,21.93,10.03,278.88,129.1,298.93,137.87,20.05,8.77,68.94,18.8,140.38,2.51,71.44-16.29,807.8-247.54,807.8-247.54l-6.71-54.93-1262.33,70.6Z"/>
    <path class="cls-9" d="M505.09,1147.2l-65.5-27.44c-8.51-3.57-12.52-13.36-8.95-21.87,3.57-8.51,13.36-12.52,21.87-8.95l65.5,27.44c8.51,3.57,12.52,13.36,8.95,21.87-3.57,8.51-13.36,12.52-21.87,8.95Z"/>
  </g>
  <g>
    <path class="cls-10" d="M739.77,1223.27v72.26c0,11.18,.86,24.95,20.65,36.99,19.79,12.04,332.45,181.76,357.81,199.88,42.15,30.11,146.25,47.32,210.77,17.21,64.52-30.11,793.19-390.57,805.23-396.59,12.04-6.02,17.21-14.62,17.21-30.97s-.16-45.94-.16-45.94l-1411.51,147.16Z"/>
    <g>
      <path class="cls-2" d="M330.61,970.16c-28.72,0-56.57-5.85-82.78-17.38L17.05,851.26c-10.95-4.82-13.82-14.71-12.86-22.36,.93-7.37,6.25-16.67,18.19-18.65l656.1-108.66c11.27-1.87,22.78-2.81,34.21-2.81,16.83,0,33.64,2.03,49.96,6.05l349.15,85.81c4.28,1.05,5.76,4.44,5.72,7.26-.04,2.82-1.61,6.17-5.92,7.1l-737.21,160.47c-14.36,3.12-29.09,4.71-43.79,4.71h0Z"/>
      <path class="cls-9" d="M712.7,702.79c16.5,0,32.99,2,49,5.93l349.15,85.81c2.35,.58,2.68,2.31,2.66,3.3-.01,.98-.39,2.71-2.75,3.23l-737.21,160.47c-14.08,3.06-28.52,4.62-42.94,4.62-28.15,0-55.46-5.73-81.16-17.04L18.67,847.58c-8.92-3.93-11.27-11.97-10.49-18.18,.79-6.28,5.11-13.57,14.86-15.19l656.1-108.66c11.05-1.83,22.34-2.76,33.55-2.76m0-8.04c-11.66,0-23.32,.95-34.87,2.87L21.73,806.28c-25.42,4.21-29.83,38.31-6.29,48.66l230.77,101.52c26.71,11.75,55.48,17.72,84.4,17.72,14.93,0,29.9-1.59,44.65-4.8l737.21-160.47c11.95-2.6,12.17-19.27,.3-22.19l-349.15-85.81c-16.7-4.1-33.8-6.16-50.92-6.16Z"/>
      <path class="cls-2" d="M722.69,1172.22c-31.32,0-62.87-7.01-91.24-20.27l-289.56-135.32c-10.82-5.06-13.67-15.16-12.74-22.94s6.11-16.92,17.82-19.26l804.61-161.17c13.71-2.75,27.75-4.14,41.74-4.14,19.53,0,38.96,2.69,57.75,8l323.26,91.29c6.87,1.94,9.34,7.64,9.36,12.32,.02,4.68-2.4,10.4-9.26,12.4l-791.48,230.49c-19.59,5.7-39.85,8.6-60.25,8.6h0Z"/>
      <path class="cls-9" d="M1193.3,813.15c19.16,0,38.22,2.64,56.66,7.85l323.27,91.29c5.95,1.68,6.43,6.91,6.44,8.47,0,1.56-.43,6.79-6.37,8.52l-791.48,230.49c-19.22,5.6-39.11,8.43-59.13,8.43-30.74,0-61.7-6.88-89.54-19.89l-289.56-135.32c-8.87-4.15-11.22-12.44-10.45-18.82,.77-6.38,5.01-13.88,14.61-15.8l804.61-161.17c13.45-2.69,27.23-4.06,40.95-4.06m0-8.04c-14.23,0-28.48,1.4-42.53,4.22l-804.61,161.17c-24.98,5-29.07,39-5.99,49.78l289.56,135.32c29.32,13.7,61.07,20.65,92.95,20.65,20.61,0,41.28-2.9,61.38-8.76l791.48-230.49c16.28-4.74,16.19-27.84-.13-32.45l-323.27-91.29c-19.21-5.43-39.02-8.15-58.84-8.15Z"/>
      <path class="cls-2" d="M1237.42,1484.53c-44.97,0-89.45-11.67-128.61-33.75l-348.86-196.67c-11.42-6.44-17.59-18.53-16.11-31.55,1.48-13.02,10.22-23.41,22.79-27.12l846.77-249.51c24.4-7.19,49.67-10.83,75.1-10.83s51.42,3.75,76.14,11.14l367.53,109.93c10.35,3.1,14.58,11.75,15.08,18.82,.51,7.07-2.45,16.23-12.25,20.77l-787.58,364.55c-34.73,16.07-71.74,24.22-109.99,24.22h0Z"/>
      <path class="cls-9" d="M1688.5,939.12c25.41,0,50.64,3.69,74.99,10.97l367.53,109.93c8.39,2.51,11.82,9.52,12.23,15.25,.41,5.73-1.98,13.16-9.93,16.84l-787.58,364.55c-34.19,15.83-70.64,23.85-108.31,23.85-44.28,0-88.07-11.49-126.64-33.24l-348.86-196.67c-11.94-6.73-15.1-18.67-14.09-27.59,1.02-8.93,6.79-19.84,19.93-23.72l846.77-249.51c24.03-7.08,48.92-10.67,73.97-10.67m0-8.04c-25.68,0-51.35,3.67-76.24,11l-846.77,249.51c-30.59,9.01-35.3,50.37-7.52,66.03l348.86,196.67c40.42,22.79,85.46,34.27,130.59,34.27,38.06,0,76.18-8.16,111.69-24.6l787.58-364.55c21.09-9.76,18.9-40.43-3.37-47.09l-367.53-109.93c-25.21-7.54-51.25-11.31-77.29-11.31Z"/>
    </g>
    <path class="cls-9" d="M1795.16,955.15l-9.98,5.99c-3.93,2.36-3.27,8.23,1.08,9.67l186.09,61.38c13.79,4.55,28.55,5.32,42.74,2.25l25.74-5.58-245.67-73.7Z"/>
    <rect class="cls-10" x="1894.82" y="968.38" width="4.89" height="55.99" rx=".93" ry=".93" transform="translate(351.61 2480.73) rotate(-71.55)"/>
    <circle class="cls-10" cx="1953.37" cy="1014.3" r="2.53"/>
    <rect class="cls-9" x="2002.75" y="1157.06" width="105.72" height="13.29" rx="2.52" ry="2.52" transform="translate(-298.9 973.84) rotate(-24.9)"/>
    <rect class="cls-9" x="1888.48" y="1211.82" width="105.72" height="13.29" rx="2.52" ry="2.52" transform="translate(-332.58 930.81) rotate(-24.9)"/>
    <path class="cls-9" d="M940.84,1415.42l-61.5-35.51c-7.99-4.61-10.73-14.83-6.12-22.83h0c4.61-7.99,14.83-10.73,22.83-6.12l61.5,35.51c7.99,4.61,10.73,14.83,6.12,22.83h0c-4.61,7.99-14.83,10.73-22.83,6.12Z"/>
    <path class="cls-9" d="M1262.69,821.87l-9.54,9.41c-2.93,2.62-1.9,8.43,1.7,9.56l153.86,48.23c11.4,3.57,23.25,3.32,34.31-.73l20.06-7.35-200.39-59.12Z"/>
    <path class="cls-3" d="M1367.63,865.58h0c-.23,1.31-1.27,2.09-2.33,1.75l-40.09-12.75c-1.06-.34-1.73-1.67-1.5-2.97h0c.23-1.31,1.27-2.09,2.33-1.75l40.09,12.75c1.06,.34,1.73,1.67,1.5,2.97Z"/>
    <ellipse class="cls-3" cx="1392.01" cy="872.57" rx="2.03" ry="2.53" transform="translate(-70.36 123.87) rotate(-4.97)"/>
    <path class="cls-9" d="M793.86,714.72l-6.48,6.06c-2.55,2.38-1.52,7.52,1.69,8.45l137.55,39.81c10.19,2.95,20.71,2.49,30.45-1.32l17.67-6.92-180.88-46.08Z"/>
    <path class="cls-10" d="M889.69,748.99h0c-.18,1.16-1.09,1.88-2.04,1.6l-35.85-10.53c-.95-.28-1.57-1.45-1.39-2.61h0c.18-1.16,1.09-1.88,2.04-1.6l35.85,10.53c.95,.28,1.57,1.45,1.39,2.61Z"/>
    <ellipse class="cls-10" cx="911.47" cy="754.71" rx="1.8" ry="2.25" transform="translate(-76.59 103.48) rotate(-6.24)"/>
  </g>
  <path class="cls-1" d="M978.3,922.44c-160.05,26.24-197.2,67.77-160.2,78.47-89.84,18.77-29.74-74.35,160.2-78.47Z"/>
  <path class="cls-1" d="M1095.01,908.15c45.64,8.08,49.47,43.74-19.77,63.52,129.34-26.66,76.94-67.63,19.77-63.52Z"/>
  <path class="cls-1" d="M740.51,1038.17c147.87,48.47,368.69-.65,480.15-78.73-122.04,142.3-391.1,134.98-480.15,78.73Z"/>
  <path class="cls-1" d="M691.21,1002.76c-4.29-19.31,2.88-77,302.83-122.67,132.86-20.23,172.22-22.17,221.03-12.66-32.5-11.02-90.31-20.65-259.35,8.65-276.23,47.89-283.6,106.22-264.52,126.68Z"/>
  <path class="cls-1" d="M911.82,1007.66s69.3-2.01,128.62-17.08c-63,34.69-128.62,17.08-128.62,17.08Z"/>
  <path class="cls-1" d="M942.1,969.26c11.79-7.47,106.24-99.01,129.37-92.51,23.13,6.5-44.09,24.57-57.09,54.2-13.01,29.63,50.59-39.03,99.73-56.37,49.14-17.35-1.45,26.74-1.45,26.74-32.52,6.5-92.51,24.57-96.12,57.82,0,10.84,26.74-28.19,38.3-25.29,11.56,2.89-13.01,28.19-13.01,28.19l-44.81,26.02s-119.97,22.4-54.93-18.79Z"/>
  <g>
    <path class="cls-5" d="M1104,871.59c10.82,54.28,101.17,82.02,201.81,61.96,94.01-18.74,163.74-72.58,163.68-123.83,0-3.61-.34-7.2-1.06-10.77-10.82-54.28-101.18-82.03-201.81-61.97-71.47,14.25-128.91,48.77-152.31,87.03-9.55,15.61-13.44,31.85-10.31,47.58Z"/>
    <path class="cls-7" d="M1115.36,834.81c10.82,54.28,101.17,82.02,201.81,61.96,71.48-14.25,128.92-48.79,152.31-87.05,0-3.61-.34-7.2-1.06-10.77-10.82-54.28-101.18-82.03-201.81-61.97-71.47,14.25-128.91,48.77-152.31,87.03,0,3.61,.35,7.22,1.06,10.8Z"/>
  </g>
  <path class="cls-1" d="M243.57,793.52c-78.5,40.09-80.17,73.49-61.8,99.38-60.96-20.04-5.01-97.71,61.8-99.38Z"/>
  <path class="cls-1" d="M821.47,760.95c15.87,15.87-.84,55.95-12.53,70.15,55.12-30.9,12.53-70.15,12.53-70.15Z"/>
  <path class="cls-1" d="M942.1,969.26c-15.04-129.57-142.62-138.77-172.87-142.72-30.25-3.95-5.26-27.62,42.09-18.41,47.35,9.21,115.74,46.03,130.21,105.22,14.47,59.19,1.32,64.45,1.32,64.45l-.74-8.54Z"/>
  <circle class="cls-1" cx="778.95" cy="788.12" r="7.37"/>
  <circle class="cls-1" cx="728.44" cy="809.7" r="15.26"/>
</svg>