<?xml version="1.0" encoding="UTF-8"?>
<svg width="500px" height="242px" viewBox="0 0 500 242" version="1.1" xmlns="http://www.w3.org/2000/svg" xmlns:xlink="http://www.w3.org/1999/xlink">
    <title>2218022_FIZZ_illustrations_Philosophie_De_Prix_Ohm</title>
    <g id="Page-1" stroke="none" stroke-width="1" fill="none" fill-rule="evenodd">
        <g id="2218022_FIZZ_illustrations_Philosophie_De_Prix_Ohm" transform="translate(0.253407, 0.470000)" fill-rule="nonzero">
            <ellipse id="Oval" fill-opacity="0.1" fill="#000000" cx="270.306593" cy="235.3" rx="218.07" ry="5.98"></ellipse>
            <path d="M346.466593,207.99 C346.506593,211.22 345.956593,214.75 344.746593,218.59 C343.056593,223.91 340.216593,228.42 336.446593,232.22 C335.606593,233.06 334.656593,233.52 333.426593,233.88 C331.976593,234.31 330.156593,234.59 327.696593,235.17 C327.696593,235.17 321.206593,236.7 305.406593,237.79 C304.826593,237.84 304.216593,237.87 303.606593,237.91 C295.016593,238.46 283.836593,238.88 269.706593,238.88 C227.456593,238.88 207.496593,235.17 207.496593,235.17 C206.286593,235.17 205.106593,234.88 204.316593,234.33 C204.306593,234.33 204.306593,234.32 204.306593,234.32 C193.296593,226.85 189.056593,212.65 197.156593,199.71 L197.166593,199.71 C206.116593,185.38 230.216593,172.6 277.016593,172.18 C277.016593,172.18 338.626593,172.38 345.786593,202.34 C346.156593,203.91 346.386593,205.55 346.446593,207.28 C346.456593,207.51 346.466593,207.75 346.466593,207.99 Z" id="Path" fill="#00D672"></path>
            <path d="M345.796593,202.34 C334.116593,186.07 314.306593,183.57 283.206593,183.57 C252.096593,183.57 220.996593,184.45 197.186593,199.72 C206.146593,185.39 230.246593,172.61 277.036593,172.189781 C277.026593,172.18 338.636593,172.38 345.796593,202.34 Z" id="Path" fill="#00C552"></path>
            <path d="M497.266593,163.69 C497.046593,165.16 496.006593,166.58 494.136593,167.58 C492.956593,168.21 491.666593,168.87 490.256593,169.53 L490.246593,169.53 C490.236593,169.53 490.236593,169.53 490.226593,169.54 C487.226593,170.96 483.706593,172.41 479.696593,173.73 C479.686593,173.74 479.686593,173.74 479.676593,173.74 C472.486593,176.11 463.736593,178.05 453.606593,178.59 C426.836593,180.02 333.416593,175.95 272.136593,176.15 C266.036593,176.17 260.256593,176.23 254.886593,176.34 C254.876593,176.34 254.876593,176.34 254.876593,176.34 C251.846593,176.4 248.956593,176.49 246.216593,176.59 C228.036593,177.24 199.766593,178.19 169.626593,178.49 L169.616593,178.49 C167.186593,178.51 164.746593,178.53 162.296593,178.55 C132.626593,178.73 101.816593,178.24 77.5165931,176.19 L77.4765931,176.19 C51.6965931,174.02 33.2465931,170.11 31.2665931,163.44 C31.2465931,163.36 31.2165931,163.28 31.2065931,163.2 C31.0265931,162.42 31.0365931,161.67 31.2265931,160.98 C31.3765931,160.46 31.6265931,159.96 31.9665931,159.48 C33.0565931,157.98 35.1265931,156.7 38.0165931,155.62 C45.6065931,152.78 58.8765931,151.32 74.9165931,150.77 C81.0365931,150.55 87.5465931,150.47 94.3065931,150.49 C100.656593,150.5 107.216593,150.61 113.866593,150.79 C126.166593,151.11 138.756593,151.67 150.776593,152.31 C170.146593,153.34 188.056593,154.6 200.986593,155.48 C203.176593,155.63 205.436593,155.75 207.776593,155.85 L207.916593,155.85 C213.876593,156.11 220.336593,156.21 227.236593,156.19 L227.266593,156.19 C255.136593,156.14 290.276593,154.23 329.776593,152.79 C364.426593,151.53 402.426593,150.65 441.816593,151.72 L475.066593,150.47 L479.766593,152.46 C479.776593,152.46 479.776593,152.47 479.776593,152.47 C479.786593,152.47 479.786593,152.47 479.786593,152.47 L486.506593,155.33 L493.446593,158.28 C495.566593,159.18 496.826593,160.62 497.186593,162.14 C497.303784,162.66 497.336593,163.17 497.266593,163.69 Z" id="Path" fill="#00D672"></path>
            <path d="M497.266593,163.69 C492.346593,166.98 482.426593,172.5 472.136593,173.9 C457.366593,175.91 438.976593,172.18 419.456593,172.18 C369.566593,172.18 329.116593,164.44 329.116593,154.9 C329.116593,154.19 329.336593,153.49 329.776593,152.8 C364.426593,151.54 402.426593,150.66 441.816593,151.73 L475.066593,150.48 L479.766593,152.47 C479.776593,152.47 479.776593,152.48 479.776593,152.48 C479.786593,152.48 479.786593,152.48 479.786593,152.48 L486.506593,155.34 L493.446593,158.29 C495.566593,159.19 496.826593,160.63 497.186593,162.15 C497.306593,162.66 497.336593,163.17 497.266593,163.69 Z" id="Path" fill="#00C552"></path>
            <path d="M152.686593,169.55 C91.2665931,174.99 37.3865931,171.42 31.9665931,159.48 C33.0565931,157.98 35.1265931,156.7 38.0165931,155.62 C38.4665931,165.61 115.416593,169.55 152.686593,169.55 Z" id="Path" fill="#00C552"></path>
            <path d="M494.126593,167.58 C492.946593,168.21 491.656593,168.87 490.246593,169.53 L490.246593,169.53 C490.236593,169.53 490.236593,169.53 490.226593,169.54 C487.226593,170.96 483.706593,172.41 479.696593,173.73 C479.686593,173.74 479.686593,173.74 479.676593,173.74 C472.486593,176.11 463.736593,178.05 453.606593,178.59 C426.836593,180.02 333.416593,175.95 272.136593,176.15 C266.036593,176.17 260.256593,176.23 254.886593,176.34 C254.876593,176.34 254.876593,176.34 254.876593,176.34 C251.846593,176.4 248.956593,176.49 246.216593,176.59 C228.036593,177.24 199.766593,178.19 169.626593,178.49 L169.616593,178.49 C167.186593,178.51 164.746593,178.53 162.296593,178.55 C132.626593,178.73 101.816593,178.24 77.5165931,176.19 C134.286593,178.49 184.156593,176.69 220.536593,168.84 C238.986593,164.68 259.926593,170.19 291.086593,170.78 C323.686593,171.41 358.546593,169.36 376.466593,172.98 C419.246593,181.61 493.736593,171.78 497.196593,162.15 C497.656593,164.11 496.656593,166.23 494.126593,167.58 Z" id="Path" fill="#00C552"></path>
            <g id="Group" transform="translate(332.673819, 0.000000)">
                <g transform="translate(49.972774, 0.000000)" fill="#560628" id="Oval">
                    <g transform="translate(3.890000, 0.000000)">
                        <circle cx="22.23" cy="58.5" r="3.89"></circle>
                        <circle cx="32.85" cy="58.76" r="3.89"></circle>
                        <circle cx="27.82" cy="3.89" r="3.89"></circle>
                        <circle cx="20.7" cy="5.37" r="3.89"></circle>
                        <circle cx="13.73" cy="7.45" r="3.89"></circle>
                        <circle cx="8.72" cy="12.61" r="3.89"></circle>
                        <circle cx="3.89" cy="18.01" r="3.89"></circle>
                        <circle cx="9.25" cy="51.23" r="3.89"></circle>
                        <circle cx="15.41" cy="55.12" r="3.89"></circle>
                        <circle cx="34.8" cy="4.82" r="3.89"></circle>
                        <circle cx="41.62" cy="7.45" r="3.89"></circle>
                        <circle cx="47.37" cy="12.13" r="3.89"></circle>
                        <circle cx="39.23" cy="55.64" r="3.89"></circle>
                    </g>
                    <circle cx="4.82" cy="24.65" r="3.89"></circle>
                    <circle cx="3.89" cy="32.01" r="3.89"></circle>
                    <circle cx="4.82" cy="39.13" r="3.89"></circle>
                    <circle cx="7.78" cy="46.01" r="3.89"></circle>
                    <circle cx="55.77" cy="18.01" r="3.89"></circle>
                    <circle cx="57.01" cy="25.24" r="3.89"></circle>
                    <circle cx="57.62" cy="32.44" r="3.89"></circle>
                    <circle cx="55.43" cy="39.13" r="3.89"></circle>
                    <circle cx="53.47" cy="46.01" r="3.89"></circle>
                    <circle cx="47.84" cy="50.72" r="3.89"></circle>
                </g>
                <g transform="translate(94.982774, 61.610000)" fill="#FF5445" id="Path">
                    <g transform="translate(6.463120, 3.260000)">
                        <path d="M16.7168801,57.51 C16.7168801,57.51 16.2668801,54.88 24.2768801,49.99 C35.6068801,58.71 41.8468801,65.75 50.1268801,74.5 C51.0268801,75.45 53.2768801,77.58 56.1368801,79.12 C58.0168801,80.2 60.1568801,83.19 61.9168801,86.44 C61.9568801,87.74 60.5468801,88.23 59.4268801,87.5 C58.9068801,87.16 57.4568801,85.89 56.7468801,84.67 C56.5268801,84.74 57.1968801,85.97 57.3468801,86.16 C58.2868801,87.65 61.3268801,90.03 61.4768801,90.44 C61.4968801,90.46 61.5168801,90.47 61.5268801,90.49 C62.4868801,90.88 63.5768801,91.49 64.2268801,91.87 C65.4168801,92.57 65.5368801,93.37 65.2468801,93.75 C64.8768801,94.25 63.9068801,94.54 63.1868801,94.36 C62.8568801,95.48 61.3368801,95.25 61.0668801,95.18 C59.4868801,96.08 57.4268801,94.81 55.9968801,94.31 C54.0668801,93.17 52.3268801,91.56 51.4968801,90.53 C50.6168801,89.48 47.7768801,82.83 45.5168801,79.38 C40.6768801,73.95 33.8368801,71.62 25.4168801,65.2 C22.0268801,62.61 18.8068801,59.97 16.7168801,57.51 Z"></path>
                        <path d="M26.4168801,51.75 L19.0968801,55.81 C19.0968801,55.81 17.8568801,58.5 17.4868801,58.22 C17.3568801,58.12 17.2168801,58.03 17.0868801,57.93 C16.8368801,57.75 16.5768801,57.51 16.3368801,57.05 C16.3368801,57.05 3.42688006,33.37 1.91688006,24.98 L1.88688006,24.84 L0.0568800584,13.82 C0.0568800584,13.82 -0.863119942,4.08 4.69688006,0 C7.67688006,2.06 10.1768801,4.86 11.0568801,7.7 C11.0668801,7.72 11.0668801,7.73 11.0768801,7.75 C11.1068801,7.84 11.1268801,7.93 11.1568801,8.02 C11.1568801,8.03 11.1568801,8.04 11.1668801,8.05 C11.5368801,9.36 11.9268801,10.71 12.3568801,12 C18.3068801,30.05 25.9568801,49.83 26.4068801,51.64 C26.4068801,51.69 26.4168801,51.73 26.4168801,51.75 Z"></path>
                    </g>
                    <path d="M13.64,28.86 L8.35,28.11 L4.24,27.53 L5.68434189e-14,8.85 L2.78,1.42108547e-14 C5.43,0.18 8.49,1.43 11.16,3.27 C14.14,5.33 16.64,8.13 17.52,10.97 C17.53,10.99 17.53,11 17.54,11.02 C17.57,11.11 17.59,11.2 17.62,11.29 C17.62,11.3 17.62,11.31 17.63,11.32 C18.99,16.86 13.64,28.86 13.64,28.86 Z"></path>
                </g>
                <g transform="translate(0.000000, 62.890000)" fill="#FF5445" id="Path">
                    <g transform="translate(0.000000, 2.830000)">
                        <path d="M48.6627739,57.51 C48.6627739,57.51 49.1127739,54.88 41.1027739,49.99 C29.7727739,58.71 23.5327739,65.75 15.2527739,74.5 C14.3527739,75.45 12.1027739,77.58 9.2427739,79.12 C7.3627739,80.2 5.2227739,83.19 3.4627739,86.44 C3.4227739,87.74 4.8327739,88.23 5.9527739,87.5 C6.4727739,87.16 7.9227739,85.89 8.6327739,84.67 C8.8527739,84.74 8.1827739,85.97 8.0327739,86.16 C7.0927739,87.65 4.0527739,90.03 3.9027739,90.44 C3.8827739,90.46 3.8627739,90.47 3.8527739,90.49 C2.8927739,90.88 1.8027739,91.49 1.1527739,91.87 C-0.037226096,92.57 -0.157226096,93.37 0.132773904,93.75 C0.502773904,94.25 1.4727739,94.54 2.1927739,94.36 C2.5227739,95.48 4.0427739,95.25 4.3127739,95.18 C5.8927739,96.08 7.9527739,94.81 9.3827739,94.31 C11.3127739,93.17 13.0527739,91.56 13.8827739,90.53 C14.7627739,89.48 17.6027739,82.83 19.8627739,79.38 C24.7027739,73.95 31.5427739,71.62 39.9627739,65.2 C43.3527739,62.62 46.5727739,59.98 48.6627739,57.51 Z"></path>
                        <path d="M38.9627739,51.75 L46.2827739,55.81 C46.2827739,55.81 47.5227739,58.5 47.8927739,58.22 C48.0227739,58.12 48.1627739,58.03 48.2927739,57.93 C48.5427739,57.75 48.8027739,57.51 49.0427739,57.05 C49.0427739,57.05 61.9527739,33.37 63.4627739,24.98 L63.4927739,24.84 L65.3227739,13.82 C65.3227739,13.82 66.2427739,4.08 60.6827739,0 C57.7027739,2.06 55.2027739,4.86 54.3227739,7.7 C54.3127739,7.72 54.3127739,7.73 54.3027739,7.75 C54.2727739,7.84 54.2527739,7.93 54.2227739,8.02 C54.2227739,8.03 54.2227739,8.04 54.2127739,8.05 C53.8427739,9.36 53.4527739,10.71 53.0227739,12 C47.0727739,30.05 39.4227739,49.83 38.9727739,51.64 C38.9727739,51.69 38.9627739,51.73 38.9627739,51.75 Z"></path>
                    </g>
                    <path d="M71.8327739,8.42 L67.5927739,27.1 L63.4827739,27.68 L59.9727739,28.18 L58.1927739,28.43 C58.1927739,28.43 52.8327739,16.43 54.2127739,10.88 C54.2127739,10.87 54.2127739,10.86 54.2127739,10.85 C54.2427739,10.76 54.2627739,10.67 54.2927739,10.58 C54.3027739,10.56 54.3027739,10.55 54.3127739,10.53 C55.2027739,7.68 57.6927739,4.89 60.6727739,2.83 C62.2327739,1.75 63.9227739,0.88 65.5927739,0.31 C65.6127739,0.3 65.6227739,0.29 65.6427739,0.29 C67.0827739,0.11 68.1827739,0.06 69.1927739,1.42108547e-14 L71.8327739,8.42 Z"></path>
                </g>
                <path d="M61.1327739,126.62 L86.2927739,118.53 C86.2927739,118.53 79.7027739,147.68 80.0127739,153.33 C80.2427739,157.48 32.4827739,161.24 32.4827739,161.24 C32.4827739,161.24 47.3927739,151.19 77.7727739,169.94 C76.7027739,172.91 73.4627739,180.5 69.9827739,178.6 C42.0627739,169.82 15.3627739,183.35 13.8227739,158.23 C12.9827739,140.51 61.1327739,126.62 61.1327739,126.62 Z" id="Path" fill="#FF5445"></path>
                <path d="M105.392774,126.62 L80.2427739,118.53 C80.2427739,118.53 86.8327739,147.68 86.5227739,153.33 C86.2927739,157.48 134.052774,161.24 134.052774,161.24 C134.052774,161.24 119.142774,151.19 88.7627739,169.94 C89.8327739,172.91 93.0727739,180.5 96.5527739,178.6 C124.472774,169.82 151.172774,183.35 152.712774,158.23 C153.552774,140.51 105.392774,126.62 105.392774,126.62 Z" id="Path" fill="#FF5445"></path>
                <circle id="Oval" fill="#560628" cx="81.2427739" cy="30.61" r="27.38"></circle>
                <path d="M81.0027739,17.53 C76.2627739,17.36 72.9227739,19.73 70.8327739,25.13 C69.8727739,27.61 68.2527739,36.5 70.6127739,44.39 C71.2327739,47.35 73.4427739,51.78 75.0427739,54.31 C75.6227739,60.66 73.9727739,62.5 73.9727739,62.5 C73.9727739,62.5 74.1927739,67.17 79.3627739,69.07 C85.9927739,71.5 90.8527739,61.42 90.8527739,61.42 C90.8527739,61.42 89.0927739,60.39 88.9227739,53.31 C92.8927739,49.69 93.4727739,35.97 92.8927739,30.84 C92.0727739,23.44 90.1327739,17.85 81.0027739,17.53 Z" id="Path" fill="#FF5445"></path>
                <path d="M81.3327739,17.15 C68.4427739,16.89 63.2527739,34.55 63.2527739,34.55 C63.2527739,34.55 64.1327739,36.81 64.7427739,36.81 C65.3527739,36.81 67.9527739,35.62 67.9527739,35.62 C67.9527739,35.62 69.3527739,35.97 70.0327739,34.02 C70.6827739,32.14 69.7027739,30.45 72.3127739,27.92 C74.3327739,25.96 76.0927739,25.85 78.7327739,25.08 C79.1727739,24.95 79.5627739,24.79 79.9227739,24.59 C80.8427739,24.09 82.0327739,24.19 82.7427739,24.97 C82.9427739,25.19 83.2227739,25.38 83.6227739,25.5 C86.2627739,26.27 88.9127739,25.73 90.3527739,28.16 C91.7827739,30.58 91.3527739,32.37 92.4527739,34.12 C93.5327739,35.83 93.9927739,36.07 94.2127739,36.05 C94.2127739,36.05 95.6027739,36.9 96.2127739,36.9 C96.8227739,36.9 98.6627739,36.05 98.6627739,36.05 C98.6627739,36.05 95.3227739,17.29 81.3327739,17.15 Z" id="Path" fill="#560628"></path>
                <path d="M106.972774,83.84 L104.162774,111.32 C104.162774,111.32 84.1627739,116.37 62.5727739,111.85 C62.5727739,110.21 61.7927739,104.11 60.9827739,98.23 C60.6327739,95.67 60.2727739,93.15 59.9727739,91.06 C59.5327739,87.98 59.2027739,85.82 59.2027739,85.82 C61.8927739,81.41 63.4927739,75.9 64.4227739,71.4 C65.2927739,67.17 65.5727739,63.85 65.5827739,63.2 C65.5827739,63.19 65.5827739,63.19 65.5827739,63.19 C65.6027739,63.19 65.6127739,63.18 65.6327739,63.18 C67.0727739,63 68.1727739,62.95 69.1827739,62.89 C70.7927739,62.79 72.1527739,62.68 74.2627739,62.07 C77.8927739,66.95 88.1627739,66.57 90.8527739,61.41 C94.9327739,61.64 95.9727739,61.51 97.7527739,61.61 C97.8327739,65.72 100.502774,76.55 106.972774,83.84 Z" id="Path" fill="#FFDE1A"></path>
                <path d="M70.1127739,35.57 C70.1127739,35.57 69.4327739,34.69 68.3327739,34.69 C67.2327739,34.69 67.4127739,42.28 68.4827739,43.19 C69.5427739,44.1 70.9427739,44.51 70.9427739,44.51 L70.1127739,35.57 Z" id="Path" fill="#FF5445"></path>
                <path d="M92.4127739,35.57 C92.4127739,35.57 93.0927739,34.69 94.1927739,34.69 C95.2927739,34.69 95.1127739,42.28 94.0427739,43.19 C92.9827739,44.1 91.5827739,44.51 91.5827739,44.51 L92.4127739,35.57 Z" id="Path" fill="#FF5445"></path>
                <path d="M62.5727739,111.56 C62.5727739,111.56 62.7727739,126.35 61.1327739,131.91 C61.1327739,131.91 85.5027739,136.89 104.812774,131.8 C104.812774,131.8 103.662774,116.46 104.162774,111.33 C104.162774,111.33 84.4027739,115 62.5727739,111.56 Z" id="Path" fill="#FF5445"></path>
                <path d="M69.9727739,178.59 L76.9027739,187.72 C77.9627739,189.11 78.8027739,190.67 79.2827739,192.35 C79.4427739,192.91 79.6627739,193.5 79.9527739,194 C80.6827739,195.27 82.6027739,195.01 82.9227739,193.57 C83.3827739,191.51 83.8427739,187.69 82.4427739,183.33 C80.4827739,177.22 81.4727739,176.29 82.2627739,172.77 C83.0527739,169.25 80.0127739,163.31 71.4627739,167.14 L69.9727739,178.59 Z" id="Path" fill="#FF5445"></path>
                <path d="M119.102774,131.33 C103.162774,137.39 99.1727739,157.27 99.1727739,157.27 L92.8027739,156.56 C92.2727739,156.5 91.7427739,156.43 91.2127739,156.34 C88.9827739,155.99 85.5027739,155.67 83.6827739,154.93 L83.3827739,154.81 L82.9427739,154.98 L82.8827739,155 C79.9727739,156.09 76.9227739,156.74 73.8227739,156.94 L67.1327739,157.36 C67.1327739,157.36 63.0127739,137.32 47.0727739,131.26 C47.0727739,131.26 61.9327739,127.07 62.2527739,122.92 C62.2527739,122.92 62.4727739,122.96 62.8827739,123.03 C65.0827739,123.42 72.7527739,124.66 82.1627739,124.73 C82.8927739,124.73 83.6227739,124.73 84.3427739,124.73 C93.7527739,124.66 101.422774,123.42 103.622774,123.03 C104.042774,122.96 104.262774,122.91 104.262774,122.91 C104.812774,126.44 119.102774,131.33 119.102774,131.33 Z" id="Path" fill="#560628"></path>
                <path d="M96.5627739,178.59 L89.6327739,187.72 C88.5727739,189.11 87.7327739,190.67 87.2527739,192.35 C87.0927739,192.91 86.8727739,193.5 86.5827739,194 C85.8527739,195.27 83.9327739,195.01 83.6127739,193.57 C83.1527739,191.51 82.6927739,187.69 84.0927739,183.33 C86.0527739,177.22 85.0627739,176.29 84.2727739,172.77 C83.4827739,169.25 86.5227739,163.31 95.0727739,167.14 L96.5627739,178.59 Z" id="Path" fill="#FF5445"></path>
            </g>
            <path d="M153.997166,154.96 C153.866593,158.48 135.856593,160.69 113.766593,159.88 C91.6765931,159.08 73.8765931,155.57 74.0058856,152.05 C74.0265931,151.6 74.3365931,151.16 74.9265931,150.76 C81.0465931,150.54 87.5565931,150.46 94.3165931,150.48 C100.666593,150.49 107.226593,150.6 113.876593,150.78 C126.176593,151.1 138.766593,151.66 150.786593,152.3 C152.876593,153.16 154.026593,154.06 153.997166,154.96 Z" id="Path" fill="#00C552"></path>
            <path d="M79.8465107,133.22 C79.9165931,153.76 91.6065931,153.69 116.856593,154.99 C138.286593,156.1 145.136593,153.13 147.256593,142.02 C147.636593,140.04 147.866593,137.79 147.996593,135.27 C148.876593,118.59 134.916593,111.24 111.406593,111.24 C111.406593,111.24 89.6265931,113.04 82.2565931,124.72 C80.7365931,127.11 79.8365931,129.92 79.8465107,133.22 Z" id="Path" fill="#00D672"></path>
            <path d="M82.2665931,124.71 C88.9465931,123.21 102.356593,120.33 107.096593,120.33 C113.516593,120.33 132.206593,118.69 141.746593,123.67 C145.206593,125.47 147.126593,134.03 147.266593,142.02 C147.646593,140.04 147.876593,137.79 148.006593,135.27 C148.886593,118.59 134.926593,111.239959 111.416593,111.239959 C111.416593,111.23 89.6465931,113.03 82.2665931,124.71 Z" id="Path" fill="#00C552"></path>
            <path d="M223.566593,112.65 C220.216593,113.98 215.926593,115.15 210.736593,116.04 C180.306593,121.21 93.2665931,117.74 61.0365931,118.4 C31.9965931,118.99 6.81659313,120.91 1.15659313,109.79 C0.536593134,108.57 0.146593134,107.19 0.0165931343,105.63 C-1.29340687,89.92 75.2665931,94.51 122.056593,96.02 C122.056593,96.02 141.736593,97.56 167.286593,97.87 C177.836593,98 189.376593,97.92 200.966593,97.45 C219.436593,96.69 229.416593,99.54 231.736593,103.34 C233.556593,106.3 230.706593,109.83 223.566593,112.65 Z" id="Path" fill="#00D672"></path>
            <path d="M223.566593,112.65 C220.216593,113.98 215.926593,115.15 210.736593,116.04 C180.306593,121.21 93.2665931,117.74 61.0365931,118.4 C31.9965931,118.99 6.81659313,120.91 1.15659313,109.79 C21.5365931,115.08 59.2365931,112.06 86.0265931,108.53 C117.106593,104.43 136.656593,121.11 223.566593,112.65 Z" id="Path" fill="#00C552"></path>
            <path d="M231.746593,103.34 C227.166593,105.17 214.676593,105.9 200.076593,104.96 C182.576593,103.84 168.376593,100.73 167.296593,97.87 C177.846593,98 189.386593,97.92 200.976593,97.45 C219.436593,96.69 229.426593,99.54 231.746593,103.34 Z" id="Path" fill="#00C552"></path>
            <path d="M208.416593,51.9 C181.616593,44.75 172.086593,63.36 172.256593,77.22 C172.426593,91.08 179.526593,102.74 201.486593,103.42 C223.456593,104.1 231.396593,94.3 233.426593,83.65 C235.456593,73 224.976593,56.31 208.416593,51.9 Z" id="Path" fill="#00D672"></path>
            <path d="M80.9565931,94.62 C81.3365931,94.97 81.5365931,95.33 81.5365931,95.69 C81.5365931,98.82 67.2865931,101.35 49.7065931,101.35 C33.0465931,101.35 19.3865931,99.08 17.9965931,96.18 L80.9565931,94.62 Z" id="Path" fill="#00C552"></path>
            <g id="Group" transform="translate(12.956593, 21.350000)">
                <g transform="translate(0.000000, 0.000000)" id="Oval">
                    <circle fill="#FFDE1A" cx="38.85" cy="38.85" r="38.85"></circle>
                    <circle fill="#FFCD0D" cx="38.85" cy="38.85" r="27.47"></circle>
                </g>
                <path d="M26.07,53.74 L26.07,44.83 C27.5,45.65 29.1,46.34 30.86,46.92 C32.62,47.49 34.56,47.78 36.69,47.78 C38.61,47.78 39.92,47.56 40.62,47.1 C41.31,46.65 41.66,46.12 41.66,45.5 C41.66,44.4 40.85,43.57 39.23,43.01 C37.62,42.46 35.83,41.8 33.89,41.05 C31.95,40.29 30.17,39.24 28.55,37.89 C26.94,36.54 26.13,34.51 26.13,31.81 C26.13,29.6 26.87,27.62 28.37,25.88 C29.86,24.14 31.96,22.94 34.67,22.29 L34.67,17.68 L42.65,17.68 L42.65,21.86 C43.88,22.02 45.06,22.27 46.18,22.6 C47.3,22.93 48.38,23.29 49.4,23.7 L49.4,32.61 C48.17,31.91 46.75,31.3 45.13,30.77 C43.51,30.24 41.74,29.97 39.82,29.97 C38.35,29.97 37.3,30.17 36.69,30.58 C36.08,30.99 35.77,31.48 35.77,32.05 C35.77,33.07 36.6,33.82 38.26,34.29 C39.92,34.76 41.73,35.36 43.69,36.07 C45.65,36.79 47.47,37.82 49.13,39.17 C50.79,40.52 51.61,42.57 51.61,45.31 C51.61,47.77 50.84,49.9 49.28,51.7 C47.73,53.5 45.52,54.75 42.65,55.45 L42.65,60.06 L34.67,60.06 L34.67,55.94 C33.03,55.82 31.52,55.56 30.13,55.17 C28.73,54.79 27.38,54.31 26.07,53.74 Z" id="Path" fill="#FFDE1A"></path>
                <path d="M74.58,37.06 C74.14,35.13 73.76,33.25 73.12,31.43 C72.56,29.61 71.88,27.84 71.13,26.13 C70.34,24.43 69.5,22.77 68.49,21.21 C67.52,19.63 66.45,18.12 65.26,16.7 C62.92,13.84 60.17,11.3 57.13,9.13 C55.6,8.06 54,7.04 52.32,6.15 C50.66,5.18 48.88,4.45 47.07,3.66 L47.11,3.46 C50.92,4.3 54.61,5.75 57.95,7.79 C61.3,9.81 64.28,12.43 66.8,15.43 C69.27,18.47 71.26,21.9 72.6,25.58 C73.94,29.25 74.68,33.14 74.77,37.05 L74.58,37.06 Z" id="Path" fill="#FFFFFF"></path>
            </g>
            <path d="M174.446593,85.46 C179.026593,104.41 214.976593,108.73 227.526593,91.87 C218.506593,97.36 201.766593,95.79 197.326593,92.79 C192.876593,89.77 185.816593,100.36 174.446593,85.46 Z" id="Path" fill="#00C552"></path>
            <path d="M146.206593,142.34 C143.286593,148.53 138.826593,152.73 127.986593,153.18 C117.146593,153.64 95.5965931,152.36 90.7965931,149.35 C103.026593,151.45 121.156593,153.36 128.536593,147.8 C135.916593,142.24 131.806593,151.45 146.206593,142.34 Z" id="Path" fill="#00C552"></path>
            <path d="M343.156593,211.75 C342.246593,223.48 333.376593,231.62 333.376593,231.62 C333.376593,231.62 317.036593,236.05 282.756593,236.9 C264.786593,237.35 238.956593,235.97 214.276593,234.26 C254.026593,234.1 275.766593,233.17 288.966593,227.12 C300.296593,232.87 326.236593,229.29 330.426593,218.42 C337.416593,219.2 343.156593,211.75 343.156593,211.75 Z" id="Path" fill="#00C552"></path>
        </g>
    </g>
</svg>